<svg xmlns="http://www.w3.org/2000/svg" width="38.346" height="24.541" viewBox="0 0 38.346 24.541">
  <path id="Icon_metro-barcode" data-name="Icon metro-barcode" d="M2.571,5.784H7.364V26.235H2.571Zm7.19,0h2.4V26.235H9.76Zm4.793,0h2.4V26.235h-2.4Zm7.19,0h2.4V26.235h-2.4Zm9.586,0h2.4V26.235h-2.4Zm7.19,0h2.4V26.235h-2.4Zm-11.983,0h1.2V26.235h-1.2Zm-7.19,0h1.2V26.235h-1.2Zm15.578,0h1.2V26.235h-1.2ZM2.571,28.28h2.4v2.045h-2.4Zm7.19,0h2.4v2.045H9.76Zm4.793,0h2.4v2.045h-2.4Zm11.983,0h2.4v2.045h-2.4Zm11.983,0h2.4v2.045h-2.4Zm-7.19,0h4.793v2.045H31.33Zm-11.983,0H24.14v2.045H19.347Z" transform="translate(-2.571 -5.784)"/>
</svg>
