<svg xmlns="http://www.w3.org/2000/svg" width="38.346" height="24.541" viewBox="0 0 38.346 24.541">
  <path id="Icon_awesome-credit-card" data-name="Icon awesome-credit-card" d="M0,29.763a3.24,3.24,0,0,0,3.2,3.281H35.15a3.24,3.24,0,0,0,3.2-3.281V17.734H0Zm12.782-4.647a.812.812,0,0,1,.8-.82h9.054a.812.812,0,0,1,.8.82v2.734a.812.812,0,0,1-.8.82H13.581a.812.812,0,0,1-.8-.82Zm-8.521,0a.812.812,0,0,1,.8-.82H9.853a.812.812,0,0,1,.8.82v2.734a.812.812,0,0,1-.8.82H5.059a.812.812,0,0,1-.8-.82ZM38.346,11.782v3.281H0V11.782A3.24,3.24,0,0,1,3.2,8.5H35.15A3.24,3.24,0,0,1,38.346,11.782Z" transform="translate(0 -8.502)"/>
</svg>
