<svg id="dinheiro-de-volta" xmlns="http://www.w3.org/2000/svg" width="26.099" height="28.191" viewBox="0 0 26.099 28.191">
  <path id="Caminho_11" data-name="Caminho 11" d="M41.426,6.073A12.975,12.975,0,0,0,33.9,2.225l.814-.814A.826.826,0,0,0,33.55.243L31.459,2.335a.826.826,0,0,0,0,1.168L33.55,5.594a.826.826,0,1,0,1.168-1.168l-.468-.468a11.39,11.39,0,1,1-6.041.447.826.826,0,0,0-.555-1.556A13.053,13.053,0,1,0,41.426,6.073Z" transform="translate(-18.993 -0.001)"/>
  <path id="Caminho_12" data-name="Caminho 12" d="M101.884,129.363a8.486,8.486,0,1,0,8.486-8.486A8.5,8.5,0,0,0,101.884,129.363Zm8.993.735a8.27,8.27,0,0,1-2.377-1.144,2.209,2.209,0,0,1-.735-2.174,2.47,2.47,0,0,1,1.7-1.935l.036-.01V124.5a.826.826,0,1,1,1.652,0v.28a3.154,3.154,0,0,1,1.142.52.826.826,0,1,1-.989,1.323,1.507,1.507,0,0,0-1.364-.2.836.836,0,0,0-.549.66.6.6,0,0,0,.131.569,7.532,7.532,0,0,0,1.909.886A2.613,2.613,0,0,1,113.2,131.5a2.971,2.971,0,0,1-.915,1.687,2.839,2.839,0,0,1-1.14.642v.4a.826.826,0,0,1-1.652,0v-.314a3.523,3.523,0,0,1-1.625-.637.826.826,0,0,1,.9-1.382,2.123,2.123,0,0,0,1.541.4,1.267,1.267,0,0,0,1.257-1.069A.961.961,0,0,0,110.877,130.1Z" transform="translate(-97.32 -114.222)"/>
</svg>
