<svg xmlns="http://www.w3.org/2000/svg" width="33.497" height="24.541" viewBox="0 0 33.497 24.541">
  <path id="Icon_metro-truck" data-name="Icon metro-truck" d="M36.068,19,31.88,11.447H25.6V7.672a2,2,0,0,0-2.094-1.888H4.664A2,2,0,0,0,2.571,7.672v15.1l2.094,1.888H7.319a3.478,3.478,0,0,0-.562,1.888,4,4,0,0,0,4.187,3.776,4,4,0,0,0,4.187-3.776,3.478,3.478,0,0,0-.562-1.888H26.161A3.478,3.478,0,0,0,25.6,26.55a4,4,0,0,0,4.187,3.776,4,4,0,0,0,4.187-3.776,3.478,3.478,0,0,0-.562-1.888h2.655V19ZM25.6,19V13.335h4.34L33.08,19H25.6Z" transform="translate(-2.571 -5.784)"/>
</svg>
