<svg id="svg" version="1.1" xmlns="http://www.w3.org/2000/svg">
    <defs>
        <g id="add" stroke-width="1">
            <path fill-rule="evenodd" clip-rule="evenodd" d="M2 2V18H12V5C12 3.34315 10.6569 2 9 2H2ZM1 0C0.447715 0 0 0.447716 0 1V19C0 19.5523 0.447716 20 1 20H13C13.5523 20 14 19.5523 14 19V5C14 2.23858 11.7614 0 9 0H1Z" fill="black" />
            <path d="M3 6C3 5.44772 3.44772 5 4 5H10C10.5523 5 11 5.44772 11 6C11 6.55228 10.5523 7 10 7H4C3.44772 7 3 6.55228 3 6Z" fill="black" />
            <path d="M3 10C3 9.44772 3.44772 9 4 9H10C10.5523 9 11 9.44772 11 10C11 10.5523 10.5523 11 10 11H4C3.44772 11 3 10.5523 3 10Z" fill="black" />
            <path d="M3 14C3 13.4477 3.44772 13 4 13H10C10.5523 13 11 13.4477 11 14C11 14.5523 10.5523 15 10 15H4C3.44772 15 3 14.5523 3 14Z" fill="black" />
        </g>
        <g id="my-list" stroke-width="1">
            <path fill="black" d="M3.80322 14.7082H1.30322C1.13746 14.7082 0.978491 14.7812 0.861281 14.911C0.744071 15.0408 0.678223 15.2169 0.678223 15.4005L0.678223 18.1698C0.678223 18.3534 0.744071 18.5295 0.861281 18.6593C0.978491 18.7891 1.13746 18.8621 1.30322 18.8621H3.80322C3.96898 18.8621 4.12795 18.7891 4.24516 18.6593C4.36237 18.5295 4.42822 18.3534 4.42822 18.1698V15.4005C4.42822 15.2169 4.36237 15.0408 4.24516 14.911C4.12795 14.7812 3.96898 14.7082 3.80322 14.7082ZM3.80322 0.862061H1.30322C1.13746 0.862061 0.978491 0.935 0.861281 1.06483C0.744071 1.19467 0.678223 1.37076 0.678223 1.55437L0.678223 4.3236C0.678223 4.50721 0.744071 4.6833 0.861281 4.81313C0.978491 4.94297 1.13746 5.01591 1.30322 5.01591H3.80322C3.96898 5.01591 4.12795 4.94297 4.24516 4.81313C4.36237 4.6833 4.42822 4.50721 4.42822 4.3236V1.55437C4.42822 1.37076 4.36237 1.19467 4.24516 1.06483C4.12795 0.935 3.96898 0.862061 3.80322 0.862061ZM3.80322 7.78514H1.30322C1.13746 7.78514 0.978491 7.85808 0.861281 7.98791C0.744071 8.11774 0.678223 8.29383 0.678223 8.47745L0.678223 11.2467C0.678223 11.4303 0.744071 11.6064 0.861281 11.7362C0.978491 11.866 1.13746 11.939 1.30322 11.939H3.80322C3.96898 11.939 4.12795 11.866 4.24516 11.7362C4.36237 11.6064 4.42822 11.4303 4.42822 11.2467V8.47745C4.42822 8.29383 4.36237 8.11774 4.24516 7.98791C4.12795 7.85808 3.96898 7.78514 3.80322 7.78514ZM20.0532 15.4005H7.55322C7.38746 15.4005 7.22849 15.4735 7.11128 15.6033C6.99407 15.7331 6.92822 15.9092 6.92822 16.0928V17.4774C6.92822 17.6611 6.99407 17.8371 7.11128 17.967C7.22849 18.0968 7.38746 18.1698 7.55322 18.1698H20.0532C20.219 18.1698 20.378 18.0968 20.4952 17.967C20.6124 17.8371 20.6782 17.6611 20.6782 17.4774V16.0928C20.6782 15.9092 20.6124 15.7331 20.4952 15.6033C20.378 15.4735 20.219 15.4005 20.0532 15.4005ZM20.0532 1.55437H7.55322C7.38746 1.55437 7.22849 1.62731 7.11128 1.75714C6.99407 1.88697 6.92822 2.06306 6.92822 2.24668V3.63129C6.92822 3.8149 6.99407 3.99099 7.11128 4.12083C7.22849 4.25066 7.38746 4.3236 7.55322 4.3236H20.0532C20.219 4.3236 20.378 4.25066 20.4952 4.12083C20.6124 3.99099 20.6782 3.8149 20.6782 3.63129V2.24668C20.6782 2.06306 20.6124 1.88697 20.4952 1.75714C20.378 1.62731 20.219 1.55437 20.0532 1.55437ZM20.0532 8.47745H7.55322C7.38746 8.47745 7.22849 8.55038 7.11128 8.68022C6.99407 8.81005 6.92822 8.98614 6.92822 9.16975V10.5544C6.92822 10.738 6.99407 10.9141 7.11128 11.0439C7.22849 11.1737 7.38746 11.2467 7.55322 11.2467H20.0532C20.219 11.2467 20.378 11.1737 20.4952 11.0439C20.6124 10.9141 20.6782 10.738 20.6782 10.5544V9.16975C20.6782 8.98614 20.6124 8.81005 20.4952 8.68022C20.378 8.55038 20.219 8.47745 20.0532 8.47745Z" />
        </g>

        <g id="control-panel" stroke-width="1">
            <path d="M5 2C4.44772 2 4 2.44772 4 3V4H2V6H4V7C4 7.55228 4.44772 8 5 8H9C9.55228 8 10 7.55228 10 7V6H22V4H10V3C10 2.44772 9.55228 2 9 2H5ZM13 9C12.4477 9 12 9.44772 12 10V11H2V13H12V14C12 14.5523 12.4477 15 13 15H17C17.5523 15 18 14.5523 18 14V13H22V11H18V10C18 9.44772 17.5523 9 17 9H13ZM4 17C4 16.4477 4.44772 16 5 16H9C9.55228 16 10 16.4477 10 17V18H22V20H10V21C10 21.5523 9.55228 22 9 22H5C4.44772 22 4 21.5523 4 21V20H2V18H4V17ZM7 4C6.44772 4 6 4.44772 6 5C6 5.55228 6.44772 6 7 6C7.55228 6 8 5.55228 8 5C8 4.44772 7.55228 4 7 4ZM14 12C14 11.4477 14.4477 11 15 11C15.5523 11 16 11.4477 16 12C16 12.5523 15.5523 13 15 13C14.4477 13 14 12.5523 14 12ZM7 18C6.44772 18 6 18.4477 6 19C6 19.5523 6.44772 20 7 20C7.55228 20 8 19.5523 8 19C8 18.4477 7.55228 18 7 18Z" fill="black" />
        </g>
        <g id="visa" stroke-width="1">
            <path d="M12.2275 8.74013H10.0522L11.4115 0.154388H13.5867L12.2275 8.74013Z" fill="#0C389F"/>
            <path d="M8.22094 0.154388L6.14626 6.05967L5.90034 4.7872L5.16928 0.928438C5.16928 0.928438 5.07985 0.154388 4.13641 0.154388H0.706929L0.666687 0.299092C0.666687 0.299092 1.71521 0.524186 2.94258 1.27986L4.83393 8.74013H7.10088L10.5617 0.154388H8.22094Z" fill="#0C389F"/>
            <path d="M25.3347 8.74013H27.3334L25.5918 0.154388H23.8413C23.0342 0.154388 22.8375 0.795218 22.8375 0.795218L19.5936 8.74243H21.8605L22.3143 7.46766H25.0798L25.3347 8.74013ZM22.9403 5.70365L24.0827 2.49032L24.7266 5.70365H22.9403Z" fill="#0C389F"/>
            <path d="M19.7637 2.21879L20.0745 0.374392C20.0745 0.374392 19.1154 0 18.1183 0C17.0384 0 14.4742 0.484642 14.4742 2.84354C14.4742 5.06233 17.4833 5.08989 17.4833 6.25441C17.4833 7.41893 14.7849 7.21221 13.8929 6.47721L13.5687 8.40429C13.5687 8.40429 14.5412 8.88893 16.0257 8.88893C17.5102 8.88893 19.7503 8.0988 19.7503 5.94892C19.7503 3.71635 16.7143 3.50734 16.7143 2.53805C16.712 1.56647 18.8314 1.6905 19.7637 2.21879Z" fill="#0C389F"/>
            <path d="M5.90034 4.78949L5.16928 0.928437C5.16928 0.928437 5.07985 0.154388 4.13641 0.154388H0.706929L0.666687 0.299092C0.666687 0.299092 2.31436 0.650515 3.8972 1.96433C5.40849 3.22302 5.90034 4.78949 5.90034 4.78949Z" fill="#E6C139"/>
        </g>
        <g id="close" stroke-width="1">
<path fill-rule="evenodd" clip-rule="evenodd" d="M6.14202 1.17157C6.40237 1.43192 6.40237 1.85403 6.14202 2.11438L1.42797 6.82843C1.16763 7.08878 0.745515 7.08878 0.485165 6.82843C0.224816 6.56808 0.224816 6.14597 0.485165 5.88562L5.19921 1.17157C5.45956 0.911223 5.88167 0.911223 6.14202 1.17157Z" fill="#FF4C4C"/>
<path fill-rule="evenodd" clip-rule="evenodd" d="M6.14202 6.82843C5.88167 7.08878 5.45956 7.08878 5.19921 6.82843L0.485165 2.11438C0.224816 1.85403 0.224816 1.43192 0.485165 1.17157C0.745515 0.911223 1.16763 0.911223 1.42797 1.17157L6.14202 5.88562C6.40237 6.14597 6.40237 6.56808 6.14202 6.82843Z" fill="#FF4C4C"/>
</g>

    </defs>
</svg>
