<?xml version="1.0" encoding="iso-8859-1"?>
<!-- Generator: Adobe Illustrator 19.0.0, SVG Export Plug-In . SVG Version: 6.00 Build 0)  -->
<svg version="1.0" id="Camada_1" xmlns="http://www.w3.org/2000/svg" xmlns:xlink="http://www.w3.org/1999/xlink" x="0px" y="0px"
	 width="20px" height="20px" viewBox="0 0 20 20" enable-background="new 0 0 20 20" xml:space="preserve">
<path id="XMLID_1_" fill="#0C0E0F" d="M6.6,6l2.6-5.5c0.2-0.5,0.8-0.7,1.2-0.4c0.2,0.1,0.3,0.2,0.4,0.4L13.4,6l5.8,0.9
	C19.7,7,20.1,7.5,20,8c0,0.2-0.1,0.4-0.3,0.5l-4.2,4.3l1,6.1c0.1,0.5-0.2,1-0.7,1.1c-0.2,0-0.4,0-0.6-0.1L10,17l-5.2,2.9
	c-0.4,0.2-1,0.1-1.2-0.4c-0.1-0.2-0.1-0.4-0.1-0.6l1-6L0.3,8.5c-0.4-0.4-0.4-1,0-1.3C0.4,7.1,0.6,7,0.8,6.9L6.6,6z"/>
</svg>
