<?xml version="1.0" encoding="iso-8859-1"?>
<!-- Generator: Adobe Illustrator 19.0.0, SVG Export Plug-In . SVG Version: 6.00 Build 0)  -->
<svg version="1.0" id="Camada_1" xmlns="http://www.w3.org/2000/svg" xmlns:xlink="http://www.w3.org/1999/xlink" x="0px" y="0px"
	 width="20px" height="20px" viewBox="0 0 20 20" enable-background="new 0 0 20 20" xml:space="preserve">
<g id="XMLID_3_" transform="translate(2 2)">
	<g id="XMLID_5_">
		<path id="XMLID_10_" fill="#0C0E0F" d="M17.1,18c-0.5,0-0.9-0.4-0.9-0.9V16c0-1.9-1.6-3.5-3.5-3.5c0,0,0,0-0.1,0H3.5
			c0,0,0,0-0.1,0c-1.9,0-3.5,1.5-3.6,3.5v1.1c0,0.5-0.4,0.9-0.9,0.9S-2,17.6-2,17.1V16c0-1.5,0.6-2.8,1.6-3.8c1-1,2.4-1.5,3.8-1.5
			h9.1c2.9-0.1,5.4,2.3,5.5,5.3v1.1C18,17.6,17.6,18,17.1,18z"/>
	</g>
	<g id="XMLID_4_">
		<path id="XMLID_7_" fill="#0C0E0F" d="M8,8.9c-3,0-5.5-2.4-5.5-5.5S5-2,8-2s5.5,2.4,5.5,5.5S11,8.9,8,8.9z M8-0.2
			c-2,0-3.6,1.6-3.6,3.6S6,7.1,8,7.1s3.6-1.6,3.6-3.6S10-0.2,8-0.2z"/>
	</g>
</g>
</svg>
