<svg xmlns="http://www.w3.org/2000/svg" width="15" height="15" viewBox="0 0 15 15">
  <path id="Icon_ionic-logo-whatsapp" data-name="Icon ionic-logo-whatsapp" d="M9.886,2.25A7.335,7.335,0,0,0,2.522,9.557,7.231,7.231,0,0,0,3.579,13.33L2.25,17.25l4.077-1.3a7.376,7.376,0,0,0,10.923-6.4A7.335,7.335,0,0,0,9.886,2.25Zm3.662,10.082a1.9,1.9,0,0,1-1.3.839c-.345.018-.355.268-2.238-.55A7.683,7.683,0,0,1,6.9,9.686a3.611,3.611,0,0,1-.695-1.957A2.087,2.087,0,0,1,6.925,6.2a.721.721,0,0,1,.51-.215c.148,0,.244,0,.354,0s.274-.023.417.356.484,1.311.527,1.406a.341.341,0,0,1,0,.327,1.279,1.279,0,0,1-.2.3c-.1.105-.207.236-.294.316s-.2.187-.1.377a5.635,5.635,0,0,0,1,1.33,5.138,5.138,0,0,0,1.476.982c.185.1.295.089.409-.031s.49-.527.623-.709.257-.146.427-.078,1.077.554,1.261.655.308.152.352.231A1.546,1.546,0,0,1,13.548,12.332Z" transform="translate(-2.25 -2.25)"/>
</svg>
