<?xml version="1.0"?>
<svg width="150" height="95" viewBox="0 0 150 95" fill="none"
  xmlns="http://www.w3.org/2000/svg">
  <path opacity="0.07" d="M138.158 0H11.8421C5.13158 0 0 5.14583 0 11.875V83.125C0 89.8542 5.52632 95 11.8421 95H138.158C144.868 95 150 89.8542 150 83.125V11.875C150 5.14583 144.474 0 138.158 0Z" fill="black"/>
  <path d="M138.158 3.95834C142.5 3.95834 146.053 7.52084 146.053 11.875V83.125C146.053 87.4792 142.5 91.0417 138.158 91.0417H11.8421C7.5 91.0417 3.94736 87.4792 3.94736 83.125V11.875C3.94736 7.52084 7.5 3.95834 11.8421 3.95834H138.158Z" fill="white"/>
  <path d="M38.6625 35.5914C39.8467 35.1956 41.0309 34.7997 42.6098 34.7997C48.5309 34.7997 53.2677 39.1539 54.452 44.6955L62.7415 43.1122C60.7678 33.6122 52.4782 26.4872 42.2151 26.4872C39.8467 26.4872 37.8731 26.8831 35.5046 27.6748L38.6625 35.5914Z" fill="#FBC707"/>
  <path d="M29.0364 62.8761L34.5627 56.5429C32.1943 54.1679 30.6154 51.0011 30.6154 47.4386C30.6154 43.8761 32.1943 40.7095 34.5627 38.3345L29.0364 32.0012C24.6943 35.9595 21.9311 41.5011 21.9311 47.4386C21.9311 53.3761 24.6943 58.9178 29.0364 62.8761Z" fill="#38A7E4"/>
  <path d="M54.6726 49.6273C53.4884 55.1689 48.7516 59.5231 42.8305 59.5231C41.6463 59.5231 40.0674 59.1272 38.8832 58.7314L36.12 67.0439C38.0936 67.8356 40.4621 68.2314 42.8305 68.2314C52.699 68.2314 61.3831 61.1064 63.3568 51.6064L54.6726 49.6273Z" fill="#EF3120"/>
  <path d="M86.9562 54.0637C86.1668 54.8553 84.9826 56.0429 83.7984 56.4387C81.0352 57.6262 78.6668 57.2303 77.0878 55.647V56.0428L74.3247 60.397C75.1142 60.7929 75.9036 61.1886 76.6931 61.5845C79.851 62.772 83.4036 62.772 86.5615 61.5845C88.9299 60.397 90.9037 58.8136 92.0879 57.2303L86.9562 54.0637ZM77.8773 43.3761C75.1142 44.5636 73.93 46.9387 73.93 50.1053L85.3773 44.9596C83.7984 42.5846 81.0352 41.7928 77.8773 43.3761ZM70.3774 56.4387C69.9826 56.0429 69.5878 55.2512 69.5878 54.8554C68.4036 51.6887 68.0089 48.522 69.1931 45.3553C70.3773 41.7928 72.7458 39.4178 75.9037 38.2303C79.851 36.647 83.7984 37.0429 87.7458 39.0221C90.1142 40.2096 91.6931 42.5845 92.8773 45.3553C92.8773 45.7511 93.2721 46.147 93.2721 46.5429L70.3774 56.4387Z" fill="#231F20"/>
  <path d="M100.942 31.9022V56.0481L104.889 57.6314L102.915 62.7772L98.5733 61.1939C97.7838 60.798 96.9943 60.0064 96.5996 59.6106C96.2048 58.8189 95.8102 58.0272 95.8102 56.4438V31.9022H100.942Z" fill="#231F20"/>
  <path d="M110.779 50.0519C110.779 48.0727 111.569 46.0936 113.148 44.9061L109.2 40.5519C106.437 42.9269 104.858 46.0935 104.858 50.0519C104.858 54.0102 106.437 57.177 109.2 59.552L113.148 55.1978C111.964 54.0103 110.779 52.031 110.779 50.0519Z" fill="#231F20"/>
  <path d="M117.841 56.7684C117.052 56.7684 116.262 56.7685 115.473 56.3727L113.499 61.9143C114.683 62.3101 116.262 62.7059 117.446 62.7059C123.762 62.7059 128.499 58.3518 129.683 52.4143L124.157 51.2268C123.762 54.3934 120.999 56.7684 117.841 56.7684Z" fill="#231F20"/>
  <path d="M117.926 37.3745C116.347 37.3745 115.163 37.7704 113.979 38.1662L115.952 43.7079C116.742 43.3121 117.531 43.312 118.321 43.312C121.479 43.312 124.242 45.687 125.031 48.8537L130.558 47.6662C128.979 41.7287 123.847 37.3745 117.926 37.3745Z" fill="#231F20"/>
</svg>
