<?xml version="1.0" encoding="utf-8"?>
<!-- Generator: Adobe Illustrator 26.5.1, SVG Export Plug-In . SVG Version: 6.00 Build 0)  -->
<svg version="1.0" id="Camada_1" xmlns="http://www.w3.org/2000/svg" xmlns:xlink="http://www.w3.org/1999/xlink" x="0px" y="0px"
	 viewBox="0 0 58 12" style="enable-background:new 0 0 58 12;" xml:space="preserve">
<style type="text/css">
	.st0{fill:#0066E4;}
</style>
<path class="st0" d="M23.58,3.52c0-0.71,0.58-1.32,1.27-1.32c0.55,0,0.97,0.33,1.12,0.67l0,1.32c-0.16,0.38-0.62,0.65-1.12,0.65h0
	C24.15,4.84,23.58,4.25,23.58,3.52 M24.84,1.51c-1.08,0-1.96,0.9-1.96,2.01c0,1.11,0.88,2.01,1.97,2.01c0.42,0,0.81-0.12,1.12-0.33
	c0.02,0.13,0.14,0.23,0.27,0.23l0.13,0c0.15,0,0.28-0.12,0.28-0.28l0-3.29c0-0.15-0.13-0.28-0.28-0.28l-0.13,0
	c-0.15,0-0.27,0.12-0.28,0.27C25.65,1.63,25.25,1.51,24.84,1.51L24.84,1.51"/>
<path class="st0" d="M23.58,3.52c0-0.71,0.58-1.32,1.27-1.32c0.55,0,0.97,0.33,1.12,0.67l0,1.32c-0.16,0.38-0.62,0.65-1.12,0.65h0
	C24.15,4.84,23.58,4.25,23.58,3.52 M24.84,1.51c-1.08,0-1.96,0.9-1.96,2.01c0,1.11,0.88,2.01,1.97,2.01c0.42,0,0.81-0.12,1.12-0.33
	c0.02,0.13,0.14,0.23,0.27,0.23l0.13,0c0.15,0,0.28-0.13,0.28-0.28l0-3.29c0-0.15-0.12-0.28-0.28-0.28l-0.13,0
	c-0.15,0-0.27,0.12-0.28,0.27C25.65,1.63,25.25,1.51,24.84,1.51L24.84,1.51z"/>
<path class="st0" d="M7.11,2.24c0.07-0.25,0.31-0.42,0.57-0.42h0.25c0.26,0,0.49,0.17,0.57,0.42l0.81,2.72
	C8.93,5.11,8.57,5.3,8.23,5.53c-0.07,0.05-0.14,0.1-0.21,0.15L7.81,4.95L7.48,6.08C7.13,6.37,6.79,6.63,6.44,6.79
	c-0.22,0.1-0.47,0.16-0.73,0.19L7.11,2.24z M3.83,6.61L2.41,2.63C2.36,2.47,2.37,2.3,2.44,2.16c0.07-0.15,0.2-0.25,0.36-0.3
	l0.25-0.07c0.06-0.02,0.11-0.03,0.17-0.03c0.24,0,0.47,0.15,0.56,0.39L5.5,6.99c-0.02,0-0.05,0-0.07,0h0
	C4.91,6.99,4.36,6.86,3.83,6.61 M11.84,2.15c0.09-0.24,0.31-0.39,0.56-0.39c0.06,0,0.11,0.01,0.17,0.02l0.25,0.07
	C12.97,1.9,13.1,2,13.17,2.15c0.07,0.14,0.09,0.31,0.03,0.47l-0.68,1.93c-0.27-0.03-0.54-0.05-0.81-0.05
	c-0.24,0-0.48,0.02-0.72,0.04L11.84,2.15z M11.37,1.98l-0.94,2.64c-0.23,0.04-0.45,0.1-0.67,0.17L8.97,2.1
	C8.83,1.64,8.41,1.32,7.93,1.32l-0.25,0c-0.48,0-0.9,0.32-1.04,0.78L5.57,5.72L4.24,1.99C4.08,1.56,3.67,1.27,3.22,1.27
	c-0.11,0-0.21,0.02-0.31,0.05L2.66,1.39C2.38,1.47,2.14,1.67,2,1.93C1.87,2.2,1.85,2.51,1.95,2.79l1.23,3.45l0.26,0.73
	c0,0,0.01,0,0.01,0.01c0.2,0.1,0.4,0.19,0.61,0.26C4.51,7.4,4.98,7.49,5.43,7.49c0.44,0,0.85-0.08,1.21-0.25
	c0.21-0.1,0.41-0.22,0.61-0.36C7.44,6.75,7.61,6.61,7.8,6.46c0.12-0.1,0.24-0.19,0.37-0.29C8.28,6.09,8.39,6.01,8.5,5.93
	c0.3-0.2,0.62-0.37,0.95-0.5C9.6,5.37,9.76,5.31,9.91,5.26c0.11-0.03,0.22-0.07,0.33-0.09c0.19-0.05,0.37-0.09,0.56-0.11
	c0.3-0.05,0.6-0.07,0.9-0.07c0.22,0,0.43,0.01,0.65,0.03c0.17,0.02,0.33,0.04,0.5,0.07l0.17-0.47l0.65-1.84
	c0.1-0.28,0.08-0.59-0.06-0.86c-0.14-0.26-0.38-0.46-0.66-0.55L12.7,1.3c-0.1-0.03-0.2-0.04-0.31-0.04
	C11.94,1.26,11.53,1.55,11.37,1.98"/>
<path class="st0" d="M7.11,2.24c0.07-0.25,0.31-0.42,0.57-0.42h0.25c0.26,0,0.49,0.17,0.57,0.42l0.81,2.72
	C8.93,5.11,8.57,5.3,8.23,5.53c-0.07,0.05-0.14,0.1-0.21,0.15L7.81,4.95L7.48,6.08C7.13,6.37,6.79,6.63,6.44,6.79
	c-0.22,0.1-0.47,0.16-0.73,0.19L7.11,2.24z M3.83,6.61L2.41,2.63C2.36,2.47,2.37,2.3,2.44,2.16c0.07-0.15,0.2-0.25,0.36-0.3
	l0.25-0.07c0.06-0.02,0.11-0.03,0.17-0.03c0.24,0,0.47,0.15,0.56,0.39L5.5,6.99c-0.02,0-0.05,0-0.07,0h0
	C4.91,6.99,4.36,6.86,3.83,6.61 M11.84,2.15c0.09-0.24,0.31-0.39,0.56-0.39c0.06,0,0.11,0.01,0.17,0.02l0.25,0.07
	C12.97,1.9,13.1,2,13.17,2.15c0.07,0.14,0.09,0.31,0.03,0.47l-0.68,1.93c-0.27-0.03-0.54-0.05-0.81-0.05
	c-0.24,0-0.48,0.02-0.72,0.04L11.84,2.15z M11.37,1.98l-0.94,2.64c-0.23,0.04-0.45,0.1-0.66,0.17L8.97,2.1
	C8.83,1.64,8.41,1.32,7.93,1.32l-0.25,0c-0.48,0-0.9,0.32-1.04,0.78L5.57,5.72L4.24,1.99C4.08,1.56,3.67,1.27,3.22,1.27
	c-0.11,0-0.21,0.02-0.31,0.05L2.66,1.39C2.38,1.47,2.14,1.67,2,1.93C1.87,2.2,1.85,2.51,1.95,2.79l1.23,3.45l0.26,0.73
	c0,0,0.01,0,0.01,0.01c0.2,0.1,0.4,0.19,0.61,0.26C4.51,7.4,4.98,7.49,5.43,7.49c0.44,0,0.85-0.08,1.21-0.25
	c0.21-0.1,0.41-0.22,0.61-0.36C7.44,6.75,7.61,6.61,7.8,6.46c0.12-0.1,0.24-0.19,0.37-0.29C8.28,6.09,8.39,6.01,8.5,5.93
	c0.3-0.2,0.62-0.37,0.95-0.5C9.6,5.37,9.76,5.31,9.91,5.26c0.11-0.03,0.22-0.07,0.33-0.09c0.19-0.05,0.37-0.09,0.56-0.11
	c0.3-0.05,0.6-0.07,0.9-0.07c0.22,0,0.43,0.01,0.65,0.03c0.17,0.02,0.33,0.04,0.5,0.07l0.17-0.47l0.65-1.84
	c0.1-0.28,0.08-0.59-0.06-0.86c-0.14-0.26-0.38-0.46-0.66-0.55L12.7,1.3c-0.1-0.03-0.2-0.04-0.31-0.04
	C11.94,1.26,11.53,1.55,11.37,1.98"/>
<path class="st0" d="M6.75,8.62L6.4,9.82c-0.07,0.25-0.3,0.43-0.57,0.43l-0.29,0c-0.25,0-0.48-0.16-0.56-0.39L4.58,8.75
	c0.28,0.05,0.56,0.07,0.84,0.07C5.89,8.82,6.33,8.75,6.75,8.62 M10.27,6.54c0.44-0.14,0.92-0.22,1.42-0.22c0.07,0,0.13,0,0.2,0.01
	l-1.24,3.52c-0.08,0.24-0.31,0.4-0.56,0.4l-0.29,0c-0.26,0-0.5-0.17-0.57-0.43L8.57,7.55C8.59,7.53,8.61,7.52,8.63,7.5
	c0.21-0.17,0.41-0.33,0.61-0.46c0.18-0.12,0.38-0.23,0.59-0.32l0.18,0.59L10.27,6.54z M10.48,5.98c-0.27,0.06-0.53,0.15-0.79,0.26
	C9.44,6.35,9.2,6.48,8.97,6.63C8.78,6.75,8.6,6.89,8.42,7.04c-0.03,0.03-0.07,0.05-0.1,0.08C8.21,7.2,8.11,7.28,8,7.37
	C7.85,7.48,7.69,7.59,7.53,7.7C7.36,7.81,7.18,7.91,6.99,8C6.97,8.01,6.94,8.02,6.92,8.03c-0.46,0.2-0.97,0.3-1.5,0.3
	c-0.34,0-0.68-0.04-1.03-0.12C4.2,8.16,4,8.11,3.81,8.04l0.21,0.58l0.5,1.4c0.15,0.43,0.56,0.72,1.02,0.72l0.29,0
	c0.48,0,0.91-0.32,1.04-0.78l0.46-1.58c0.3-0.15,0.57-0.32,0.82-0.51l0.61,2.08c0.13,0.46,0.56,0.78,1.04,0.78l0.29,0
	c0.46,0,0.87-0.29,1.02-0.72l1.28-3.64l0.17-0.47c-0.17-0.03-0.33-0.04-0.5-0.05c-0.12-0.01-0.25-0.01-0.37-0.01
	C11.28,5.83,10.87,5.88,10.48,5.98"/>
<path class="st0" d="M6.75,8.62L6.4,9.82c-0.07,0.25-0.3,0.43-0.57,0.43l-0.29,0c-0.25,0-0.47-0.16-0.56-0.39L4.58,8.75
	c0.28,0.05,0.56,0.07,0.84,0.07C5.89,8.82,6.33,8.75,6.75,8.62 M10.27,6.54c0.44-0.14,0.92-0.22,1.42-0.22c0.07,0,0.13,0,0.2,0.01
	l-1.24,3.52c-0.08,0.24-0.31,0.4-0.56,0.4l-0.29,0c-0.26,0-0.5-0.17-0.57-0.43L8.57,7.55C8.59,7.53,8.61,7.52,8.63,7.5
	c0.21-0.17,0.41-0.33,0.61-0.46c0.18-0.12,0.38-0.23,0.59-0.32l0.18,0.59L10.27,6.54z M10.48,5.98c-0.27,0.06-0.53,0.15-0.79,0.26
	C9.44,6.35,9.2,6.48,8.97,6.63C8.78,6.75,8.6,6.89,8.42,7.04c-0.03,0.03-0.07,0.05-0.1,0.08C8.21,7.2,8.11,7.28,8,7.37
	C7.85,7.48,7.69,7.59,7.53,7.7C7.36,7.81,7.18,7.91,6.99,8C6.97,8.01,6.94,8.02,6.92,8.03c-0.46,0.2-0.97,0.3-1.5,0.3
	c-0.34,0-0.68-0.04-1.03-0.12C4.2,8.16,4,8.11,3.81,8.04l0.21,0.58l0.5,1.4c0.15,0.43,0.56,0.72,1.02,0.72l0.29,0
	c0.48,0,0.91-0.32,1.04-0.78l0.46-1.58c0.3-0.15,0.57-0.32,0.82-0.51l0.61,2.08c0.13,0.46,0.56,0.78,1.04,0.78l0.29,0
	c0.46,0,0.87-0.29,1.02-0.72l1.28-3.64l0.17-0.47c-0.17-0.03-0.33-0.04-0.5-0.05c-0.12-0.01-0.25-0.01-0.37-0.01
	C11.28,5.83,10.87,5.88,10.48,5.98"/>
<path class="st0" d="M22.11,1.71l-0.86,2.42l-0.71-2.38c-0.04-0.12-0.14-0.2-0.27-0.2l-0.12,0c-0.12,0-0.23,0.08-0.27,0.2l-0.7,2.38
	l-0.86-2.42c-0.05-0.14-0.2-0.22-0.34-0.17l-0.12,0.03c-0.07,0.02-0.13,0.07-0.17,0.14c-0.03,0.07-0.04,0.15-0.01,0.22l1.21,3.4
	c0.04,0.11,0.14,0.19,0.26,0.19l0.14,0c0.12,0,0.23-0.08,0.27-0.2l0.66-2.29l0.67,2.29c0.03,0.12,0.14,0.2,0.27,0.2l0.14,0
	c0.12,0,0.22-0.07,0.26-0.19l1.2-3.4c0.03-0.07,0.02-0.15-0.01-0.22c-0.03-0.07-0.1-0.12-0.17-0.14l-0.12-0.03
	c-0.03-0.01-0.05-0.01-0.08-0.01C22.26,1.53,22.15,1.6,22.11,1.71"/>
<path class="st0" d="M22.11,1.71l-0.86,2.42l-0.71-2.38c-0.03-0.12-0.14-0.2-0.27-0.2l-0.12,0c-0.12,0-0.23,0.08-0.27,0.2l-0.7,2.38
	l-0.86-2.42c-0.05-0.14-0.2-0.22-0.34-0.17l-0.12,0.03c-0.07,0.02-0.13,0.07-0.17,0.14c-0.03,0.07-0.04,0.15-0.01,0.22l1.21,3.4
	c0.04,0.11,0.14,0.19,0.26,0.19l0.14,0c0.12,0,0.23-0.08,0.27-0.2l0.66-2.29l0.67,2.29c0.03,0.12,0.14,0.2,0.27,0.2l0.14,0
	c0.12,0,0.22-0.07,0.26-0.19l1.2-3.4c0.03-0.07,0.02-0.15-0.01-0.22c-0.03-0.07-0.1-0.12-0.17-0.14l-0.12-0.03
	c-0.03-0.01-0.05-0.01-0.08-0.01C22.26,1.53,22.15,1.6,22.11,1.71"/>
<path class="st0" d="M30.23,1.68l-1.29,2.75l-1.3-2.75c-0.06-0.13-0.22-0.2-0.36-0.14l-0.12,0.05c-0.07,0.03-0.13,0.09-0.15,0.16
	c-0.03,0.07-0.02,0.15,0.01,0.22l1.6,3.38c0.05,0.1,0.14,0.16,0.25,0.16l0.14,0c0.11,0,0.21-0.06,0.25-0.16l1.59-3.39
	c0.03-0.07,0.04-0.15,0.01-0.22c-0.03-0.07-0.08-0.13-0.15-0.16l-0.12-0.05c-0.03-0.01-0.07-0.02-0.11-0.02
	C30.37,1.52,30.27,1.58,30.23,1.68"/>
<path class="st0" d="M30.23,1.68l-1.29,2.75l-1.3-2.75c-0.06-0.13-0.22-0.2-0.36-0.14l-0.12,0.05c-0.07,0.03-0.13,0.09-0.15,0.16
	c-0.03,0.07-0.02,0.15,0.01,0.22l1.6,3.38c0.05,0.1,0.14,0.16,0.25,0.16l0.14,0c0.11,0,0.21-0.06,0.25-0.16l1.59-3.39
	c0.03-0.07,0.04-0.15,0.01-0.22c-0.03-0.07-0.08-0.13-0.15-0.16l-0.12-0.05c-0.03-0.01-0.07-0.02-0.11-0.02
	C30.37,1.52,30.27,1.58,30.23,1.68"/>
<path class="st0" d="M19.76,6.68c-1.11,0-2,0.9-2,2.01c0,1.11,0.9,2.01,2.01,2.01c0.72,0,1.39-0.39,1.75-1.02
	c0.04-0.07,0.05-0.14,0.02-0.22c-0.02-0.07-0.07-0.13-0.14-0.17l-0.12-0.06c-0.13-0.07-0.3-0.02-0.37,0.11
	c-0.24,0.42-0.66,0.67-1.15,0.67c-0.72,0-1.31-0.59-1.31-1.32c0-0.73,0.59-1.32,1.31-1.32c0.47,0,0.9,0.25,1.14,0.65
	c0.04,0.07,0.1,0.11,0.18,0.13c0.08,0.02,0.15,0,0.22-0.04l0.11-0.08c0.12-0.08,0.16-0.25,0.08-0.37
	C21.13,7.05,20.47,6.68,19.76,6.68L19.76,6.68z"/>
<path class="st0" d="M19.76,6.68c-1.11,0-2,0.9-2,2.01c0,1.11,0.9,2.01,2.01,2.01c0.72,0,1.39-0.39,1.75-1.02
	c0.04-0.07,0.05-0.14,0.02-0.22c-0.02-0.07-0.07-0.13-0.14-0.17l-0.12-0.06c-0.13-0.07-0.3-0.02-0.37,0.11
	c-0.24,0.42-0.66,0.67-1.15,0.67c-0.72,0-1.31-0.59-1.31-1.32c0-0.73,0.59-1.32,1.31-1.32c0.47,0,0.9,0.25,1.14,0.65
	c0.04,0.07,0.1,0.11,0.18,0.13c0.08,0.02,0.15,0,0.22-0.04l0.11-0.08c0.12-0.08,0.16-0.25,0.08-0.37
	C21.13,7.05,20.46,6.68,19.76,6.68L19.76,6.68z"/>
<path class="st0" d="M22.49,8.68c0-0.73,0.59-1.32,1.31-1.32c0.73,0,1.32,0.59,1.32,1.32c0,0.73-0.59,1.32-1.32,1.33h0
	C23.07,10,22.49,9.41,22.49,8.68 M23.79,6.68c-1.11,0-2,0.9-2,2.01c0,1.11,0.9,2.01,2.01,2.01c1.11,0,2.01-0.9,2.01-2.01
	C25.81,7.57,24.9,6.68,23.79,6.68L23.79,6.68"/>
<path class="st0" d="M22.49,8.68c0-0.73,0.59-1.32,1.31-1.32c0.73,0,1.32,0.59,1.32,1.32c0,0.73-0.59,1.32-1.32,1.33h0
	C23.07,10,22.49,9.41,22.49,8.68 M23.79,6.68c-1.11,0-2,0.9-2,2.01c0,1.11,0.9,2.01,2.01,2.01c1.11,0,2.01-0.9,2.01-2.01
	C25.81,7.57,24.9,6.68,23.79,6.68L23.79,6.68z"/>
<path class="st0" d="M31.02,6.72c-0.63,0-1.15,0.24-1.48,0.66c-0.28-0.43-0.75-0.66-1.35-0.66c-0.47,0-0.89,0.12-1.21,0.35v0
	c0-0.15-0.13-0.28-0.28-0.28l-0.13,0c-0.15,0-0.28,0.12-0.28,0.28l0,3.29c0,0.15,0.13,0.28,0.28,0.28l0.13,0
	c0.15,0,0.28-0.13,0.28-0.28l0-2.22c0.19-0.47,0.62-0.72,1.21-0.72c0.84,0,0.97,0.7,0.97,1.11l0,1.84c0,0.15,0.12,0.28,0.28,0.28
	l0.13,0c0.15,0,0.28-0.12,0.28-0.28l0-1.84c0-0.76,0.61-1.1,1.17-1.11c0.83,0,1,0.6,1,1.11l0,1.84c0,0.15,0.12,0.28,0.28,0.28
	l0.13,0c0.15,0,0.28-0.12,0.28-0.28l0-1.84C32.71,7.41,32.07,6.72,31.02,6.72L31.02,6.72z"/>
<path class="st0" d="M31.02,6.72c-0.63,0-1.15,0.24-1.48,0.66c-0.28-0.43-0.75-0.66-1.35-0.66c-0.47,0-0.89,0.12-1.21,0.35v0
	c0-0.15-0.13-0.28-0.28-0.28l-0.13,0c-0.15,0-0.28,0.12-0.28,0.28l0,3.29c0,0.15,0.13,0.28,0.28,0.28l0.13,0
	c0.15,0,0.28-0.13,0.28-0.28l0-2.22c0.19-0.47,0.62-0.72,1.21-0.72c0.84,0,0.97,0.7,0.97,1.11l0,1.84c0,0.15,0.12,0.28,0.28,0.28
	l0.13,0c0.15,0,0.28-0.12,0.28-0.28l0-1.84c0-0.76,0.61-1.1,1.17-1.11c0.83,0,1,0.6,1,1.11l0,1.84c0,0.15,0.12,0.28,0.28,0.28
	l0.13,0c0.15,0,0.28-0.13,0.28-0.28l0-1.84C32.71,7.41,32.07,6.72,31.02,6.72L31.02,6.72z"/>
<path class="st0" d="M38.02,6.71c-0.63,0-1.15,0.24-1.48,0.66c-0.28-0.43-0.75-0.66-1.35-0.66c-0.47,0-0.89,0.12-1.21,0.35v0
	c0-0.15-0.12-0.28-0.28-0.28l-0.13,0c-0.15,0-0.28,0.12-0.28,0.28l0,3.29c0,0.15,0.12,0.28,0.28,0.28h0.13
	c0.15,0,0.28-0.13,0.28-0.28l0-2.22c0.19-0.47,0.62-0.72,1.21-0.72c0.84,0,0.97,0.7,0.97,1.11l0,1.84c0,0.15,0.12,0.28,0.28,0.28
	h0.13c0.15,0,0.28-0.12,0.28-0.28l0-1.84c0-0.76,0.61-1.1,1.17-1.11c0.83,0,1,0.6,1,1.11l0,1.84c0,0.15,0.12,0.28,0.28,0.28h0.13
	c0.15,0,0.28-0.13,0.28-0.28l0-1.84C39.71,7.4,39.06,6.71,38.02,6.71L38.02,6.71z"/>
<path class="st0" d="M38.02,6.71c-0.63,0-1.15,0.24-1.48,0.66c-0.28-0.43-0.75-0.66-1.35-0.66c-0.47,0-0.89,0.12-1.21,0.35v0
	c0-0.15-0.12-0.28-0.28-0.28l-0.13,0c-0.15,0-0.28,0.12-0.28,0.28l0,3.29c0,0.15,0.12,0.28,0.28,0.28h0.13
	c0.15,0,0.28-0.13,0.28-0.28l0-2.22c0.19-0.47,0.62-0.72,1.21-0.72c0.84,0,0.97,0.7,0.97,1.11l0,1.84c0,0.15,0.12,0.28,0.28,0.28
	h0.13c0.15,0,0.28-0.13,0.28-0.28l0-1.84c0-0.76,0.61-1.1,1.17-1.11c0.83,0,1,0.6,1,1.11l0,1.84c0,0.15,0.13,0.28,0.28,0.28h0.13
	c0.15,0,0.28-0.13,0.28-0.28l0-1.84C39.71,7.4,39.06,6.71,38.02,6.71L38.02,6.71z"/>
<path class="st0" d="M46.26,6.71c-0.38,0-0.73,0.11-1.01,0.3c-0.02-0.13-0.14-0.23-0.28-0.23l-0.13,0c-0.15,0-0.28,0.13-0.28,0.28
	l0,3.29c0,0.15,0.12,0.28,0.28,0.28h0.13c0.15,0,0.28-0.13,0.28-0.28l0-2.24c0.12-0.33,0.4-0.71,1.01-0.71
	c0.57,0,0.91,0.31,0.97,0.86c0.01,0.14,0.13,0.25,0.28,0.25l0.13,0c0.08,0,0.15-0.03,0.21-0.09c0.05-0.06,0.08-0.13,0.07-0.21
	C47.83,7.28,47.19,6.71,46.26,6.71L46.26,6.71z"/>
<path class="st0" d="M46.26,6.71c-0.38,0-0.73,0.11-1.01,0.3c-0.02-0.13-0.14-0.23-0.28-0.23l-0.13,0c-0.15,0-0.28,0.13-0.28,0.28
	l0,3.29c0,0.15,0.12,0.28,0.28,0.28h0.13c0.15,0,0.28-0.13,0.28-0.28l0-2.24c0.12-0.33,0.4-0.71,1.01-0.71
	c0.57,0,0.91,0.31,0.97,0.86c0.01,0.14,0.13,0.25,0.28,0.25l0.13,0c0.08,0,0.15-0.03,0.21-0.09c0.05-0.06,0.08-0.13,0.07-0.21
	C47.83,7.28,47.19,6.71,46.26,6.71L46.26,6.71z"/>
<path class="st0" d="M42.17,7.35c0.63,0,1.15,0.49,1.24,1.12l-2.46,0C41.03,7.84,41.54,7.35,42.17,7.35 M42.17,6.66
	c-1.07,0-1.94,0.9-1.93,2.01c0,1.09,0.87,1.97,1.94,2.01l0,0.01c0.08,0,0.16,0,0.23-0.01c0.07,0,0.12-0.01,0.12-0.01
	c0.44-0.06,0.85-0.27,1.17-0.6c0.01-0.01,0.02-0.03,0.03-0.04c0.06-0.1,0.06-0.24-0.02-0.33l-0.09-0.1c-0.05-0.06-0.13-0.1-0.21-0.1
	c-0.08,0-0.16,0.03-0.21,0.09c-0.22,0.23-0.5,0.37-0.81,0.41c0,0-0.05,0-0.11,0l0,0c-0.01,0-0.03,0-0.04,0
	c-0.55,0-1.03-0.34-1.23-0.84l2.81,0c0.14,0,0.26-0.11,0.28-0.25c0.01-0.08,0.01-0.16,0.01-0.23C44.11,7.56,43.24,6.66,42.17,6.66
	L42.17,6.66"/>
<path class="st0" d="M42.17,7.35c0.63,0,1.15,0.49,1.24,1.12l-2.46,0C41.03,7.84,41.54,7.35,42.17,7.35 M42.17,6.66
	c-1.07,0-1.94,0.9-1.93,2.01c0,1.09,0.87,1.97,1.94,2.01l0,0.01c0.08,0,0.16,0,0.23-0.01c0.07,0,0.12-0.01,0.12-0.01
	c0.44-0.06,0.85-0.27,1.17-0.6c0.01-0.01,0.02-0.03,0.03-0.04c0.06-0.1,0.06-0.24-0.02-0.33l-0.09-0.1
	c-0.05-0.06-0.13-0.09-0.21-0.1c-0.08,0-0.16,0.03-0.21,0.09c-0.22,0.23-0.5,0.37-0.81,0.41c0,0-0.05,0-0.11,0l0,0
	c-0.01,0-0.03,0-0.04,0c-0.55,0-1.03-0.34-1.23-0.84l2.81,0c0.14,0,0.26-0.11,0.28-0.25c0.01-0.08,0.01-0.16,0.01-0.23
	C44.11,7.56,43.24,6.66,42.17,6.66L42.17,6.66z"/>
<path class="st0" d="M50.24,6.65c-1.11,0-2,0.9-2,2.01c0,1.11,0.9,2.01,2.01,2.01c0.72,0,1.39-0.39,1.75-1.02
	c0.04-0.07,0.05-0.14,0.02-0.22C52,9.36,51.95,9.3,51.88,9.26L51.77,9.2c-0.13-0.07-0.3-0.02-0.37,0.11
	c-0.24,0.42-0.66,0.67-1.15,0.67c-0.72,0-1.31-0.59-1.31-1.32c0-0.73,0.59-1.32,1.31-1.32c0.47,0,0.9,0.25,1.14,0.65
	c0.04,0.07,0.1,0.11,0.18,0.13c0.08,0.02,0.15,0,0.22-0.04L51.89,8c0.12-0.08,0.16-0.25,0.08-0.37C51.61,7.02,50.95,6.65,50.24,6.65
	L50.24,6.65z"/>
<path class="st0" d="M50.24,6.65c-1.11,0-2,0.9-2,2.01c0,1.11,0.9,2.01,2.01,2.01c0.72,0,1.39-0.39,1.75-1.02
	c0.04-0.07,0.05-0.14,0.02-0.22C52,9.36,51.95,9.3,51.88,9.26L51.77,9.2c-0.13-0.07-0.3-0.02-0.37,0.11
	c-0.24,0.42-0.66,0.67-1.15,0.67c-0.72,0-1.31-0.59-1.31-1.32c0-0.73,0.59-1.32,1.31-1.32c0.47,0,0.9,0.25,1.14,0.65
	c0.04,0.07,0.1,0.11,0.18,0.13c0.08,0.02,0.15,0,0.22-0.04L51.89,8c0.12-0.08,0.16-0.25,0.08-0.37C51.61,7.02,50.95,6.65,50.24,6.65
	L50.24,6.65z"/>
<path class="st0" d="M54.21,7.34c0.63,0,1.15,0.49,1.24,1.12l-2.46,0C53.07,7.82,53.59,7.34,54.21,7.34 M54.21,6.65
	c-1.07,0-1.94,0.9-1.93,2.01c0,1.09,0.87,1.97,1.94,2.01l0,0.01c0.08,0,0.16,0,0.23-0.01c0.07,0,0.12-0.01,0.12-0.01
	c0.44-0.06,0.85-0.27,1.17-0.6c0.01-0.01,0.02-0.03,0.03-0.04v0c0.06-0.1,0.06-0.24-0.02-0.33l-0.09-0.1
	c-0.05-0.06-0.13-0.1-0.21-0.1c-0.08,0-0.16,0.03-0.21,0.09c-0.22,0.23-0.5,0.37-0.81,0.41l0,0c0,0-0.05,0-0.11,0l0,0
	c-0.01,0-0.03,0-0.04,0c-0.55,0-1.03-0.34-1.23-0.84l2.81,0c0.14,0,0.26-0.11,0.28-0.25c0.01-0.08,0.01-0.16,0.01-0.23
	C56.15,7.55,55.28,6.65,54.21,6.65L54.21,6.65"/>
<path class="st0" d="M54.21,7.34c0.63,0,1.15,0.49,1.24,1.12l-2.46,0C53.07,7.82,53.59,7.34,54.21,7.34 M54.21,6.65
	c-1.07,0-1.94,0.9-1.93,2.01c0,1.09,0.87,1.97,1.94,2.01l0,0.01c0.08,0,0.16,0,0.23-0.01c0.07,0,0.12-0.01,0.12-0.01
	c0.44-0.06,0.85-0.27,1.17-0.6c0.01-0.01,0.02-0.03,0.03-0.04v0c0.06-0.1,0.06-0.24-0.02-0.33l-0.09-0.1
	c-0.05-0.06-0.13-0.1-0.21-0.1c-0.08,0-0.16,0.03-0.21,0.09c-0.22,0.23-0.5,0.37-0.81,0.41l0,0c0,0-0.05,0-0.11,0l0,0
	c-0.01,0-0.03,0-0.04,0c-0.55,0-1.03-0.34-1.23-0.84l2.81,0c0.14,0,0.26-0.11,0.28-0.25c0.01-0.08,0.01-0.16,0.01-0.23
	C56.15,7.55,55.28,6.65,54.21,6.65L54.21,6.65z"/>
<path class="st0" d="M32.82,2.19c0.63,0,1.15,0.49,1.24,1.12l-2.46,0C31.68,2.68,32.2,2.19,32.82,2.19 M32.82,1.5
	c-1.07,0-1.94,0.9-1.93,2.01c0,1.09,0.87,1.97,1.94,2.01l0,0.01c0.08,0,0.16,0,0.23-0.01c0.07,0,0.12-0.01,0.12-0.01
	c0.44-0.06,0.85-0.27,1.17-0.6c0.01-0.01,0.02-0.03,0.03-0.04v0c0.06-0.1,0.06-0.24-0.02-0.33l-0.09-0.1
	c-0.05-0.06-0.13-0.1-0.21-0.1c-0.08,0-0.16,0.03-0.21,0.09c-0.22,0.23-0.5,0.37-0.81,0.41l0,0c0,0-0.05,0-0.11,0l0,0
	c-0.01,0-0.03,0-0.04,0c-0.55,0-1.03-0.34-1.23-0.84l2.81,0c0.14,0,0.26-0.11,0.28-0.25c0.01-0.08,0.01-0.16,0.01-0.23
	C34.76,2.4,33.89,1.5,32.82,1.5L32.82,1.5"/>
<path class="st0" d="M32.82,2.19c0.63,0,1.15,0.49,1.24,1.12l-2.46,0C31.68,2.68,32.2,2.19,32.82,2.19 M32.82,1.5
	c-1.07,0-1.94,0.9-1.93,2.01c0,1.09,0.87,1.97,1.94,2.01l0,0.01c0.08,0,0.16,0,0.23-0.01c0.07,0,0.12-0.01,0.12-0.01
	c0.44-0.06,0.85-0.27,1.17-0.6c0.01-0.01,0.02-0.03,0.03-0.04v0c0.06-0.1,0.06-0.24-0.02-0.33l-0.09-0.1
	c-0.05-0.06-0.13-0.1-0.21-0.1c-0.08,0-0.16,0.03-0.21,0.09c-0.22,0.23-0.5,0.37-0.81,0.41l0,0c0,0-0.05,0-0.11,0l0,0
	c-0.01,0-0.03,0-0.04,0c-0.55,0-1.03-0.34-1.23-0.84l2.81,0c0.14,0,0.26-0.11,0.28-0.25c0.01-0.08,0.01-0.16,0.01-0.23
	C34.76,2.4,33.89,1.5,32.82,1.5L32.82,1.5z"/>
</svg>
