<?xml version="1.0" encoding="utf-8"?>
<!-- Generator: Adobe Illustrator 26.5.1, SVG Export Plug-In . SVG Version: 6.00 Build 0)  -->
<svg version="1.0" id="Camada_1" xmlns="http://www.w3.org/2000/svg" xmlns:xlink="http://www.w3.org/1999/xlink" x="0px" y="0px"
	 viewBox="0 0 32 12" style="enable-background:new 0 0 32 12;" xml:space="preserve">
<style type="text/css">
	.st0{fill:#0066E4;}
	.st1{fill:#F71963;}
</style>
<g>
	<path class="st1" d="M12.81,0.87H3.85c-0.69,0-1.14,0.74-0.81,1.35l0.9,1.7H2.3c-0.33,0-0.6,0.27-0.6,0.6
		c0,0.1,0.02,0.19,0.07,0.28l2.88,5.45c0.15,0.29,0.52,0.4,0.81,0.25c0.11-0.06,0.19-0.14,0.25-0.25L6.5,8.78l0.98,1.86
		c0.35,0.65,1.28,0.66,1.63,0l4.49-8.45C13.91,1.59,13.48,0.87,12.81,0.87L12.81,0.87z M8.78,4.48L6.85,8.13
		C6.74,8.32,6.5,8.39,6.31,8.29C6.24,8.25,6.18,8.2,6.14,8.13L4.23,4.5C4.12,4.3,4.2,4.06,4.39,3.96c0.06-0.03,0.12-0.05,0.18-0.05
		h3.86c0.21,0,0.39,0.17,0.39,0.39C8.83,4.36,8.81,4.43,8.78,4.48L8.78,4.48z M22.33,4.79h-0.98v3.36c0,0.06-0.05,0.12-0.12,0.12
		h-0.76c-0.06,0-0.12-0.05-0.12-0.12V4.79h-0.99c-0.06,0-0.11-0.05-0.12-0.11c0,0,0,0,0,0V4.09c0-0.06,0.05-0.11,0.11-0.11
		c0,0,0,0,0,0h2.95c0.06,0,0.12,0.05,0.12,0.11v0.59C22.45,4.75,22.4,4.79,22.33,4.79L22.33,4.79z M25.48,8.24
		c-0.2,0.03-0.54,0.07-1.16,0.07c-0.74,0-1.4-0.19-1.4-1.24V5.16c0-1.05,0.66-1.23,1.41-1.23c0.62,0,0.96,0.05,1.16,0.07
		c0.08,0.01,0.12,0.04,0.12,0.12v0.54c0,0.06-0.05,0.12-0.12,0.12h-1.22c-0.27,0-0.37,0.09-0.37,0.39v0.53h1.54
		c0.06,0,0.12,0.05,0.12,0.12v0.55c0,0.06-0.05,0.12-0.12,0.12h-1.54v0.61c0,0.3,0.1,0.39,0.37,0.39h1.22
		c0.06,0,0.12,0.05,0.12,0.12v0.54C25.59,8.19,25.56,8.23,25.48,8.24L25.48,8.24z M29.83,8.26h-0.92c-0.07,0-0.11-0.02-0.15-0.09
		l-0.8-1.26l-0.72,1.23c-0.04,0.07-0.08,0.12-0.14,0.12h-0.85c-0.06,0-0.09-0.03-0.09-0.07c0-0.01,0.01-0.03,0.01-0.04l1.25-2.08
		l-1.26-1.98c-0.01-0.01-0.01-0.02-0.01-0.03c0-0.04,0.04-0.08,0.09-0.07h0.93c0.06,0,0.11,0.06,0.14,0.11l0.74,1.17l0.71-1.17
		c0.03-0.05,0.08-0.11,0.14-0.11h0.85c0.04,0,0.08,0.03,0.09,0.07c0,0.01-0.01,0.02-0.01,0.03l-1.26,1.99l1.31,2.07
		c0.01,0.02,0.02,0.04,0.02,0.06C29.91,8.24,29.88,8.26,29.83,8.26z M17.88,3.99c-0.04,0-0.08,0.03-0.09,0.07l-0.84,3.1
		c-0.01,0.06-0.03,0.09-0.08,0.09s-0.07-0.02-0.08-0.09l-0.84-3.1c-0.01-0.04-0.04-0.07-0.09-0.07h-0.82
		c-0.05,0-0.09,0.04-0.09,0.09c0,0.01,0,0.01,0,0.02c0,0,1.02,3.55,1.03,3.59c0.14,0.42,0.47,0.63,0.89,0.63
		c0.4,0,0.75-0.21,0.89-0.62c0.02-0.05,1.02-3.59,1.02-3.59c0.01-0.05-0.02-0.1-0.07-0.11c-0.01,0-0.01,0-0.02,0L17.88,3.99z"/>
	<path class="st1" d="M12.81,0.87H3.85c-0.69,0-1.14,0.74-0.81,1.35l0.9,1.7H2.3c-0.33,0-0.6,0.27-0.6,0.6
		c0,0.1,0.02,0.19,0.07,0.28l2.88,5.45c0.15,0.29,0.52,0.4,0.81,0.25c0.11-0.06,0.19-0.14,0.25-0.25L6.5,8.78l0.98,1.86
		c0.35,0.65,1.28,0.66,1.63,0l4.49-8.45C13.91,1.59,13.48,0.87,12.81,0.87L12.81,0.87z M8.78,4.48L6.85,8.13
		C6.74,8.32,6.5,8.39,6.31,8.29C6.24,8.25,6.18,8.2,6.14,8.13L4.23,4.5C4.12,4.3,4.2,4.06,4.39,3.96c0.06-0.03,0.12-0.05,0.18-0.05
		h3.86c0.21,0,0.39,0.17,0.39,0.39C8.83,4.36,8.81,4.43,8.78,4.48L8.78,4.48z"/>
</g>
</svg>
