<svg width="17" height="18" viewBox="0 0 17 18" fill="none" xmlns="http://www.w3.org/2000/svg">
<path d="M8.50008 0.666504C3.89659 0.666504 0.166748 4.39634 0.166748 8.99984C0.166748 13.6033 3.89659 17.3332 8.50008 17.3332C13.1036 17.3332 16.8334 13.6033 16.8334 8.99984C16.8334 4.39634 13.1036 0.666504 8.50008 0.666504ZM13.3388 9.9407C13.3388 10.1625 13.1573 10.3439 12.9356 10.3439H9.84417V13.4353C9.84417 13.6571 9.66272 13.8385 9.44094 13.8385H7.55922C7.33745 13.8385 7.156 13.6571 7.156 13.4353V10.3439H4.0646C3.84282 10.3439 3.66137 10.1625 3.66137 9.9407V8.05898C3.66137 7.8372 3.84282 7.65575 4.0646 7.65575H7.156V4.56435C7.156 4.34258 7.33745 4.16113 7.55922 4.16113H9.44094C9.66272 4.16113 9.84417 4.34258 9.84417 4.56435V7.65575H12.9356C13.1573 7.65575 13.3388 7.8372 13.3388 8.05898V9.9407Z" fill="white"/>
</svg>
