<svg width="40" height="40" viewBox="0 0 40 40" fill="none" xmlns="http://www.w3.org/2000/svg">
<path d="M35.4166 40H4.58344C2.05505 40 0 37.9449 0 35.4166V7.91656C0 5.38818 2.05505 3.33344 4.58344 3.33344H35.4166C37.9449 3.33344 40 5.38818 40 7.91656V35.4166C40 37.9449 37.9449 40 35.4166 40ZM4.58344 5.83344C3.43506 5.83344 2.5 6.76819 2.5 7.91656V35.4166C2.5 36.5649 3.43506 37.5 4.58344 37.5H35.4166C36.5649 37.5 37.5 36.5649 37.5 35.4166V7.91656C37.5 6.76819 36.5649 5.83344 35.4166 5.83344H4.58344Z" fill="#0C389F"/>
<path d="M38.75 15.8334H1.25C0.559998 15.8334 0 15.2734 0 14.5834C0 13.8934 0.559998 13.3334 1.25 13.3334H38.75C39.44 13.3334 40 13.8934 40 14.5834C40 15.2734 39.44 15.8334 38.75 15.8334Z" fill="#0C389F"/>
<path d="M9.58344 10C8.89343 10 8.33344 9.44 8.33344 8.75V1.25C8.33344 0.559998 8.89343 0 9.58344 0C10.2734 0 10.8334 0.559998 10.8334 1.25V8.75C10.8334 9.44 10.2734 10 9.58344 10Z" fill="#0C389F"/>
<path d="M30.4166 10C29.7266 10 29.1666 9.44 29.1666 8.75V1.25C29.1666 0.559998 29.7266 0 30.4166 0C31.1066 0 31.6666 0.559998 31.6666 1.25V8.75C31.6666 9.44 31.1066 10 30.4166 10Z" fill="#0C389F"/>
<path d="M12.9761 34V22.192H10.2881V20.656C10.7361 20.624 11.1521 20.576 11.5361 20.512C11.9201 20.432 12.2561 20.304 12.5441 20.128C12.8481 19.952 13.0961 19.72 13.2881 19.432C13.4961 19.128 13.6321 18.752 13.6961 18.304H15.2561V34H12.9761Z" fill="#0C389F"/>
<path d="M19.971 26.608L20.811 18.4H28.899V20.32H22.731L22.299 24.568C22.427 24.552 22.635 24.544 22.923 24.544C23.227 24.528 23.443 24.52 23.571 24.52C24.291 24.52 25.011 24.608 25.731 24.784C26.451 24.96 27.091 25.24 27.651 25.624C28.211 25.992 28.667 26.48 29.019 27.088C29.371 27.68 29.547 28.4 29.547 29.248V29.536C29.547 30.256 29.387 30.92 29.067 31.528C28.747 32.12 28.323 32.624 27.795 33.04C27.267 33.456 26.659 33.776 25.971 34C25.299 34.24 24.595 34.36 23.859 34.36C23.091 34.36 22.291 34.28 21.459 34.12C20.627 33.976 19.875 33.704 19.203 33.304V30.952H19.587C20.179 31.368 20.803 31.704 21.459 31.96C22.115 32.2 22.819 32.32 23.571 32.32C24.771 32.32 25.683 32.048 26.307 31.504C26.947 30.944 27.267 30.256 27.267 29.44C27.267 28.912 27.155 28.464 26.931 28.096C26.723 27.728 26.435 27.424 26.067 27.184C25.715 26.944 25.307 26.768 24.843 26.656C24.395 26.544 23.923 26.488 23.427 26.488C22.819 26.488 22.251 26.528 21.723 26.608C21.195 26.688 20.723 26.792 20.307 26.92L19.971 26.608Z" fill="#0C389F"/>
</svg>
