<svg width="40" height="40" viewBox="0 0 40 40" fill="none" xmlns="http://www.w3.org/2000/svg">
<path fill-rule="evenodd" clip-rule="evenodd" d="M18.4615 10.3077C19.5661 10.3077 20.4615 11.2031 20.4615 12.3077V22.6154H27.6923C28.7969 22.6154 29.6923 23.5108 29.6923 24.6154C29.6923 25.72 28.7969 26.6154 27.6923 26.6154H18.4615C17.357 26.6154 16.4615 25.72 16.4615 24.6154V12.3077C16.4615 11.2031 17.357 10.3077 18.4615 10.3077ZM20 36C28.8366 36 36 28.8366 36 20C36 11.1634 28.8366 4 20 4C11.1634 4 4 11.1634 4 20C4 28.8366 11.1634 36 20 36ZM20 40C31.0457 40 40 31.0457 40 20C40 8.9543 31.0457 0 20 0C8.9543 0 0 8.9543 0 20C0 31.0457 8.9543 40 20 40Z" fill="#0C389F"/>
</svg>
