<svg width="7" height="8" viewBox="0 0 7 8" fill="none" xmlns="http://www.w3.org/2000/svg">
<path fill-rule="evenodd" clip-rule="evenodd" d="M6.14202 1.17157C6.40237 1.43192 6.40237 1.85403 6.14202 2.11438L1.42797 6.82843C1.16763 7.08878 0.745515 7.08878 0.485165 6.82843C0.224816 6.56808 0.224816 6.14597 0.485165 5.88562L5.19921 1.17157C5.45956 0.911223 5.88167 0.911223 6.14202 1.17157Z" fill="#FF4C4C"/>
<path fill-rule="evenodd" clip-rule="evenodd" d="M6.14202 6.82843C5.88167 7.08878 5.45956 7.08878 5.19921 6.82843L0.485165 2.11438C0.224816 1.85403 0.224816 1.43192 0.485165 1.17157C0.745515 0.911223 1.16763 0.911223 1.42797 1.17157L6.14202 5.88562C6.40237 6.14597 6.40237 6.56808 6.14202 6.82843Z" fill="#FF4C4C"/>
</svg>
