<svg width="16" height="16" viewBox="0 0 16 16" fill="none" xmlns="http://www.w3.org/2000/svg">
<path d="M12.375 7.9995C12.0294 7.9995 11.75 8.27954 11.75 8.62446V13.6245C11.75 13.9689 11.47 14.2495 11.125 14.2495H2.375C2.02996 14.2495 1.75004 13.9689 1.75004 13.6245V4.87446C1.75004 4.53011 2.02996 4.2495 2.375 4.2495H7.37504C7.72065 4.2495 8 3.96946 8 3.62454C8 3.2795 7.72065 2.99946 7.37504 2.99946H2.375C1.34126 2.99946 0.5 3.84072 0.5 4.87446V13.6245C0.5 14.6582 1.34126 15.4995 2.375 15.4995H11.125C12.1588 15.4995 13 14.6582 13 13.6245V8.62446C13 8.27885 12.7206 7.9995 12.375 7.9995Z" fill="#0C389F"/>
<path d="M6.35986 7.43017C6.31615 7.47389 6.28673 7.52951 6.27426 7.58947L5.8324 9.79956C5.8118 9.90198 5.84431 10.0076 5.91801 10.082C5.9774 10.1414 6.05739 10.1732 6.13933 10.1732C6.15925 10.1732 6.17996 10.1714 6.20056 10.167L8.40996 9.72517C8.47118 9.71258 8.5268 9.68328 8.56994 9.63945L13.5149 4.69446L11.3055 2.48518L6.35986 7.43017Z" fill="#0C389F"/>
<path d="M15.0425 0.957048C14.4332 0.347651 13.4419 0.347651 12.8331 0.957048L11.9681 1.82199L14.1775 4.03139L15.0425 3.16633C15.3375 2.87199 15.5 2.47946 15.5 2.06198C15.5 1.6445 15.3375 1.25196 15.0425 0.957048Z" fill="#0C389F"/>
</svg>
