<svg width="17" height="18" viewBox="0 0 17 18" fill="none" xmlns="http://www.w3.org/2000/svg">
<path d="M16.7269 1.31883C16.8608 1.64237 16.8057 1.91857 16.5614 2.14742L10.7341 7.98313V16.7663C10.7341 17.0977 10.5805 17.3305 10.2731 17.4647C10.1707 17.5041 10.0722 17.5238 9.97764 17.5238C9.76488 17.5238 9.58758 17.4489 9.44574 17.2989L6.41982 14.2686C6.2701 14.1187 6.19524 13.9411 6.19524 13.736V7.98313L0.367994 2.14742C0.123714 1.91857 0.068554 1.64237 0.202514 1.31883C0.336474 1.01106 0.568933 0.857178 0.899893 0.857178H16.0295C16.3604 0.857178 16.5929 1.01106 16.7269 1.31883Z" fill="#0C389F"/>
</svg>
