<svg width="40" height="40" viewBox="0 0 40 40" fill="none" xmlns="http://www.w3.org/2000/svg">
<path d="M0 37.1429C0 38.7232 1.11719 40 2.5 40H18V25.7143H0V37.1429ZM22 40H37.5C38.8828 40 40 38.7232 40 37.1429V25.7143H22V40ZM37.5 11.4286H34.2109C34.6953 10.3482 35 9.15179 35 7.85714C35 3.52679 31.9141 0 28.125 0C24.875 0 22.7734 1.90179 20.0781 6.09821C17.3828 1.90179 15.2812 0 12.0312 0C8.24219 0 5.15625 3.52679 5.15625 7.85714C5.15625 9.15179 5.45312 10.3482 5.94531 11.4286H2.5C1.11719 11.4286 0 12.7054 0 14.2857V21.4286C0 22.2143 0.5625 22.8571 1.25 22.8571H38.75C39.4375 22.8571 40 22.2143 40 21.4286V14.2857C40 12.7054 38.8828 11.4286 37.5 11.4286ZM12.0234 11.4286C10.2969 11.4286 8.89844 9.83036 8.89844 7.85714C8.89844 5.88393 10.2969 4.28571 12.0234 4.28571C13.5781 4.28571 14.7266 4.58036 18.75 11.4286H12.0234ZM28.125 11.4286H21.3984C25.4141 4.59821 26.5312 4.28571 28.125 4.28571C29.8516 4.28571 31.25 5.88393 31.25 7.85714C31.25 9.83036 29.8516 11.4286 28.125 11.4286Z" fill="#0C389F"/>
</svg>
