<svg width="41" height="41" viewBox="0 0 41 41" fill="none" xmlns="http://www.w3.org/2000/svg">
<path d="M13.5319 25.0992C10.3976 25.3008 7.55308 26.4945 5.93905 30.7476C5.75546 31.2328 5.31407 31.5273 4.79923 31.5273C3.93128 31.5273 1.24774 29.3656 0.48291 28.8437C0.483691 35.2773 3.44691 40.932 10.4835 40.932C16.4099 40.932 20.4833 37.5125 20.4833 31.5422C20.4833 31.2992 20.4325 31.0672 20.4075 30.8289L13.5319 25.0992ZM36.2556 0.932007C35.0713 0.932007 33.9612 1.45623 33.1143 2.21716C17.1451 16.4828 15.4834 16.8179 15.4834 21.0172C15.4834 22.0875 15.7373 23.1078 16.1654 24.0406L21.1513 28.1953C21.7145 28.3359 22.295 28.432 22.9004 28.432C27.7527 28.432 30.5651 24.8797 39.397 8.39607C39.9735 7.27498 40.4829 6.06404 40.4829 4.8031C40.4829 2.54451 38.4517 0.932007 36.2556 0.932007Z" fill="#0C389F"/>
</svg>
