<svg width="17" height="18" viewBox="0 0 17 18" fill="#FFFFFF" xmlns="http://www.w3.org/2000/svg">
<path d="M8.49996 0.666656C3.89647 0.666656 0.166626 4.3965 0.166626 8.99999C0.166626 13.6035 3.89647 17.3333 8.49996 17.3333C13.1035 17.3333 16.8333 13.6035 16.8333 8.99999C16.8333 4.3965 13.1035 0.666656 8.49996 0.666656ZM13.3387 9.94085C13.3387 10.1626 13.1572 10.3441 12.9354 10.3441H9.84405V13.4355C9.84405 13.6572 9.66259 13.8387 9.44082 13.8387H7.5591C7.33732 13.8387 7.15587 13.6572 7.15587 13.4355V10.3441H4.06448C3.8427 10.3441 3.66125 10.1626 3.66125 9.94085V8.05913C3.66125 7.83736 3.8427 7.6559 4.06448 7.6559H7.15587V4.56451C7.15587 4.34273 7.33732 4.16128 7.5591 4.16128H9.44082C9.66259 4.16128 9.84405 4.34273 9.84405 4.56451V7.6559H12.9354C13.1572 7.6559 13.3387 7.83736 13.3387 8.05913V9.94085Z" fill="#FFFFFF"/>

</svg>
