<svg width="40" height="40" viewBox="0 0 40 40" fill="none" xmlns="http://www.w3.org/2000/svg">
<path d="M20 0C8.95161 0 0 8.95161 0 20C0 31.0484 8.95161 40 20 40C31.0484 40 40 31.0484 40 20C40 8.95161 31.0484 0 20 0ZM20 36.129C11.0484 36.129 3.87097 28.9516 3.87097 20C3.87097 11.129 11.0484 3.87097 20 3.87097C28.871 3.87097 36.129 11.129 36.129 20C36.129 28.9516 28.871 36.129 20 36.129ZM13.5484 18.7097C14.9194 18.7097 16.129 17.5806 16.129 16.129C16.129 14.7581 14.9194 13.5484 13.5484 13.5484C12.0968 13.5484 10.9677 14.7581 10.9677 16.129C10.9677 17.5806 12.0968 18.7097 13.5484 18.7097ZM26.4516 13.5484C25 13.5484 23.871 14.7581 23.871 16.129C23.871 17.5806 25 18.7097 26.4516 18.7097C27.8226 18.7097 29.0323 17.5806 29.0323 16.129C29.0323 14.7581 27.8226 13.5484 26.4516 13.5484ZM20 23.871C16.6935 23.871 13.7097 25.3226 11.6129 27.8226C10.8871 28.629 11.0484 29.8387 11.8548 30.5645C12.6613 31.2097 13.871 31.129 14.5968 30.3226C15.8871 28.7097 17.9032 27.7419 20 27.7419C22.0161 27.7419 24.0323 28.7097 25.3226 30.3226C26.0484 31.0484 27.2581 31.2903 28.0645 30.5645C28.871 29.8387 29.0323 28.629 28.3064 27.8226C26.2903 25.3226 23.2258 23.871 20 23.871Z" fill="#0C389F"/>
</svg>
