<svg width="11" height="12" viewBox="0 0 11 12" fill="none" xmlns="http://www.w3.org/2000/svg">
<path d="M8.64286 7.5C8.08775 7.5 7.57755 7.68326 7.1748 7.98973L4.6584 6.48846C4.73292 6.1667 4.73292 5.83328 4.6584 5.51152L7.1748 4.01025C7.57755 4.31674 8.08775 4.5 8.64286 4.5C9.94466 4.5 11 3.49263 11 2.25C11 1.00737 9.94466 0 8.64286 0C7.34105 0 6.28571 1.00737 6.28571 2.25C6.28571 2.41777 6.30511 2.58117 6.3416 2.73846L3.8252 4.23973C3.42245 3.93326 2.91225 3.75 2.35714 3.75C1.05534 3.75 0 4.75737 0 6C0 7.24263 1.05534 8.25 2.35714 8.25C2.91225 8.25 3.42245 8.06674 3.8252 7.76027L6.3416 9.26154C6.3044 9.42193 6.28566 9.58572 6.28571 9.75C6.28571 10.9926 7.34105 12 8.64286 12C9.94466 12 11 10.9926 11 9.75C11 8.50737 9.94466 7.5 8.64286 7.5Z" fill="#0C389F"/>
</svg>
