<svg id="carrinho-carrinho" xmlns="http://www.w3.org/2000/svg" width="61.538" height="61.534" viewBox="0 0 61.538 61.534">
  <path id="Caminho_5" data-name="Caminho 5" d="M61.2,11.537A6.127,6.127,0,0,0,56.38,9.2H14.81L13.253,2.581a2.051,2.051,0,0,0-2-1.581h-8.2a2.051,2.051,0,1,0,0,4.1h6.58l7.251,30.82a6.137,6.137,0,0,0,.527,12.253H52.278a2.051,2.051,0,0,0,0-4.1H17.409a2.051,2.051,0,1,1,0-4.1H52.036a6.133,6.133,0,0,0,5.989-4.744l4.346-18.46a6.125,6.125,0,0,0-1.167-5.23Z" transform="translate(-1 -1)"/>
  <ellipse id="Elipse_5" data-name="Elipse 5" cx="6.153" cy="6.153" rx="6.153" ry="6.153" transform="translate(38.971 49.227)"/>
  <ellipse id="Elipse_6" data-name="Elipse 6" cx="6.153" cy="6.153" rx="6.153" ry="6.153" transform="translate(16.409 49.227)"/>
</svg>
