<svg width="30" height="29" viewBox="0 0 30 29" fill="none" xmlns="http://www.w3.org/2000/svg">
<path d="M21.8752 0.14624C20.4676 0.168134 19.0908 0.561057 17.8836 1.28533C16.6765 2.0096 15.6819 3.03958 15.0002 4.27124C14.3185 3.03958 13.3239 2.0096 12.1167 1.28533C10.9096 0.561057 9.53275 0.168134 8.12519 0.14624C5.88137 0.243729 3.76732 1.22531 2.24492 2.87653C0.722516 4.52775 -0.0844962 6.7144 0.000192004 8.95874C0.000192004 17.4275 13.6952 27.2087 14.2777 27.6237L15.0002 28.135L15.7227 27.6237C16.3052 27.2112 30.0002 17.4275 30.0002 8.95874C30.0849 6.7144 29.2779 4.52775 27.7555 2.87653C26.2331 1.22531 24.119 0.243729 21.8752 0.14624ZM15.0002 25.0575C10.9339 22.02 2.50019 14.5575 2.50019 8.95874C2.41474 7.37714 2.95815 5.8259 4.0119 4.64336C5.06564 3.46083 6.54423 2.74293 8.12519 2.64624C9.70615 2.74293 11.1847 3.46083 12.2385 4.64336C13.2922 5.8259 13.8356 7.37714 13.7502 8.95874H16.2502C16.1647 7.37714 16.7081 5.8259 17.7619 4.64336C18.8156 3.46083 20.2942 2.74293 21.8752 2.64624C23.4562 2.74293 24.9347 3.46083 25.9885 4.64336C27.0422 5.8259 27.5856 7.37714 27.5002 8.95874C27.5002 14.56 19.0664 22.02 15.0002 25.0575Z" fill="black"/>
</svg>
