<svg width="20" height="20" viewBox="0 0 20 20" fill="none" xmlns="http://www.w3.org/2000/svg">
<g clip-path="url(#clip0_193_5983)">
<path d="M1.21582 4.94112H18.7845C19.4548 4.94112 20 4.39597 20 3.72558C20 3.0552 19.4548 2.50977 18.7845 2.50977H1.21582C0.545437 2.50977 0 3.0552 0 3.72558C0 4.39597 0.545437 4.94112 1.21582 4.94112Z" fill="#161515"/>
<path d="M18.7845 8.78418H1.21582C0.545437 8.78418 0 9.32962 0 10C0 10.6704 0.545437 11.2155 1.21582 11.2155H18.7845C19.4548 11.2155 20 10.6704 20 10C20 9.32962 19.4548 8.78418 18.7845 8.78418Z" fill="#161515"/>
<path d="M18.7845 15.0586H1.21582C0.545437 15.0586 0 15.6043 0 16.2747C0 16.9451 0.545437 17.4902 1.21582 17.4902H18.7845C19.4548 17.4902 20 16.9451 20 16.2747C20 15.6043 19.4548 15.0586 18.7845 15.0586Z" fill="#161515"/>
</g>
<defs>
<clipPath id="clip0_193_5983">
<rect width="20" height="20" fill="white"/>
</clipPath>
</defs>
</svg>
