<svg width="20" height="20" viewBox="0 0 20 20" fill="none" xmlns="http://www.w3.org/2000/svg">
<path d="M19.4036 3.38809C19.1633 3.10757 18.8625 2.88195 18.5225 2.72727C18.1824 2.57259 17.8116 2.49263 17.4362 2.49307H3.62393L3.58805 2.20139C3.51462 1.59508 3.21505 1.03607 2.74613 0.630314C2.27721 0.224562 1.67154 0.000284039 1.04395 0L0.854297 0C0.627723 0 0.410429 0.0875542 0.250218 0.243402C0.090006 0.399249 0 0.610623 0 0.831025C0 1.05143 0.090006 1.2628 0.250218 1.41865C0.410429 1.5745 0.627723 1.66205 0.854297 1.66205H1.04395C1.2532 1.66208 1.45516 1.73681 1.61152 1.87206C1.76789 2.00732 1.86779 2.1937 1.89227 2.39584L3.06778 12.1188C3.18982 13.13 3.68926 14.0624 4.47131 14.7391C5.25336 15.4157 6.26358 15.7895 7.31022 15.7895H16.2316C16.4582 15.7895 16.6755 15.7019 16.8357 15.5461C16.9959 15.3902 17.0859 15.1789 17.0859 14.9584C17.0859 14.738 16.9959 14.5267 16.8357 14.3708C16.6755 14.215 16.4582 14.1274 16.2316 14.1274H7.31022C6.78146 14.126 6.26609 13.9655 5.83479 13.6679C5.40349 13.3704 5.07735 12.9503 4.9011 12.4654H15.0843C16.0858 12.4654 17.0555 12.1232 17.8239 11.4984C18.5923 10.8737 19.1106 10.0061 19.2883 9.04737L19.9589 5.42909C20.0259 5.07009 20.0108 4.70116 19.9149 4.34845C19.8189 3.99574 19.6444 3.66788 19.4036 3.38809ZM18.2819 5.13407L17.6105 8.75235C17.5038 9.32825 17.1923 9.8493 16.7304 10.2243C16.2686 10.5992 15.6859 10.8042 15.0843 10.8033H4.62943L3.82554 4.15512H17.4362C17.5617 4.1544 17.6858 4.18057 17.7997 4.23179C17.9136 4.28301 18.0146 4.35802 18.0953 4.45147C18.176 4.54493 18.2346 4.65455 18.2669 4.77252C18.2991 4.8905 18.3043 5.01394 18.2819 5.13407Z" fill="black"/>
<path d="M5.89303 20C6.78063 20 7.50017 19.2145 7.50017 18.2456C7.50017 17.2767 6.78063 16.4912 5.89303 16.4912C5.00543 16.4912 4.28589 17.2767 4.28589 18.2456C4.28589 19.2145 5.00543 20 5.89303 20Z" fill="black"/>
<path d="M14.4643 20C15.3519 20 16.0715 19.2145 16.0715 18.2456C16.0715 17.2767 15.3519 16.4912 14.4643 16.4912C13.5767 16.4912 12.8572 17.2767 12.8572 18.2456C12.8572 19.2145 13.5767 20 14.4643 20Z" fill="black"/>
</svg>
