<svg width="17" height="20" viewBox="0 0 17 20" fill="none" xmlns="http://www.w3.org/2000/svg">
<path d="M8 10C9.18669 10 10.3467 9.70675 11.3334 9.15735C12.3201 8.60794 13.0891 7.82705 13.5433 6.91342C13.9974 5.99979 14.1162 4.99445 13.8847 4.02455C13.6532 3.05465 13.0818 2.16373 12.2426 1.46447C11.4035 0.765206 10.3344 0.289002 9.17054 0.0960758C8.00665 -0.0968502 6.80025 0.00216643 5.7039 0.380604C4.60754 0.759043 3.67047 1.3999 3.01118 2.22215C2.35189 3.0444 2 4.01109 2 5C2.00159 6.32568 2.63424 7.59668 3.75911 8.53407C4.88399 9.47147 6.40919 9.99868 8 10ZM8 1.66667C8.79112 1.66667 9.56448 1.86217 10.2223 2.22844C10.8801 2.59471 11.3928 3.1153 11.6955 3.72439C11.9983 4.33348 12.0775 5.0037 11.9231 5.6503C11.7688 6.29691 11.3878 6.89085 10.8284 7.35702C10.269 7.8232 9.55628 8.14067 8.78036 8.26928C8.00444 8.3979 7.20017 8.33189 6.46926 8.0796C5.73836 7.82731 5.11365 7.40006 4.67412 6.8519C4.2346 6.30374 4 5.65927 4 5C4 4.11595 4.42143 3.2681 5.17157 2.64298C5.92172 2.01786 6.93913 1.66667 8 1.66667Z" fill="black"/>
<path d="M8.5 12C6.24643 12.0021 4.08587 12.7614 2.49235 14.1112C0.898836 15.461 0.00249981 17.2911 0 19.2C0 19.4122 0.0995036 19.6157 0.276621 19.7657C0.453739 19.9157 0.693962 20 0.944444 20C1.19493 20 1.43515 19.9157 1.61227 19.7657C1.78938 19.6157 1.88889 19.4122 1.88889 19.2C1.88889 17.7148 2.58541 16.2904 3.82524 15.2402C5.06506 14.19 6.74662 13.6 8.5 13.6C10.2534 13.6 11.9349 14.19 13.1748 15.2402C14.4146 16.2904 15.1111 17.7148 15.1111 19.2C15.1111 19.4122 15.2106 19.6157 15.3877 19.7657C15.5648 19.9157 15.8051 20 16.0556 20C16.306 20 16.5463 19.9157 16.7234 19.7657C16.9005 19.6157 17 19.4122 17 19.2C16.9975 17.2911 16.1012 15.461 14.5076 14.1112C12.9141 12.7614 10.7536 12.0021 8.5 12Z" fill="black"/>
</svg>
