<svg xmlns="http://www.w3.org/2000/svg" width="16" height="16" viewBox="0 0 16 16">
  <g id="Grupo_100" data-name="Grupo 100" transform="translate(-224 -337)">
    <path id="Vector" d="M16,3.979a.532.532,0,0,1-.469.577H14.46a3.54,3.54,0,0,1-3.2,3.4,3.54,3.54,0,0,1-3.2-3.4H.469A.532.532,0,0,1,0,3.979.532.532,0,0,1,.469,3.4h7.6a3.54,3.54,0,0,1,3.2-3.4,3.54,3.54,0,0,1,3.2,3.4h1.072A.532.532,0,0,1,16,3.979Zm-2.444,0a2.6,2.6,0,0,0-2.293-2.824A2.6,2.6,0,0,0,8.971,3.979,2.6,2.6,0,0,0,11.264,6.8a2.6,2.6,0,0,0,2.293-2.825Z" transform="translate(231.959 337) rotate(90)"/>
    <path id="Vector-2" data-name="Vector" d="M0,3.979A.532.532,0,0,1,.469,3.4H1.54A3.54,3.54,0,0,1,4.736,0a3.54,3.54,0,0,1,3.2,3.4h7.6A.532.532,0,0,1,16,3.979a.532.532,0,0,1-.469.577h-7.6a3.54,3.54,0,0,1-3.2,3.4,3.54,3.54,0,0,1-3.2-3.4H.469A.532.532,0,0,1,0,3.979Zm2.444,0A2.6,2.6,0,0,0,4.736,6.8,2.6,2.6,0,0,0,7.029,3.979,2.6,2.6,0,0,0,4.736,1.155,2.6,2.6,0,0,0,2.444,3.979Z" transform="translate(240 337) rotate(90)"/>
  </g>
</svg>
