<svg xmlns="http://www.w3.org/2000/svg" width="22" height="22" viewBox="0 0 22 22">
  <g id="icone-de-presente" transform="translate(-12.374)">
    <g id="Grupo_25" data-name="Grupo 25" transform="translate(12.374)">
      <g id="Grupo_24" data-name="Grupo 24" transform="translate(0)">
        <path id="Caminho_10" data-name="Caminho 10" d="M19.5,16.181l3.407-5.28V22H13.883V10.9h5.295l-2.714,4.218,2.066-.32Zm3.245-6.163H12.389l-.015-4.411h5.518a4.331,4.331,0,0,1-1.771-1.328,2.181,2.181,0,0,1-.435-1.287,3.261,3.261,0,0,1,.948-2.23A3.362,3.362,0,0,1,18.757,0a4.383,4.383,0,0,1,2.237.633,5.966,5.966,0,0,1,1.676,1.476,11.007,11.007,0,0,1,.7,1.437l.082-.144a7.582,7.582,0,0,1,2.3-2.768A4.365,4.365,0,0,1,27.989,0a3.369,3.369,0,0,1,2.034.659,2.972,2.972,0,0,1,.91,2.092A2.937,2.937,0,0,1,29.3,5.107a7.8,7.8,0,0,1-.939.5h5.994l.015,4.411H24.006V5.607h-1.26v4.411h0ZM24.274,5.34A11.658,11.658,0,0,0,28.4,4.008a1.948,1.948,0,0,0,.987-1.514A1.1,1.1,0,0,0,29,1.68a1.675,1.675,0,0,0-1-.326h0a2.774,2.774,0,0,0-1.376.405,6.848,6.848,0,0,0-1.27,1.5A6.056,6.056,0,0,0,24.274,5.34Zm-1.827-.1a5.568,5.568,0,0,0-.534-1.226,6.435,6.435,0,0,0-1.78-2.259,2.76,2.76,0,0,0-1.376-.405h-.007a1.722,1.722,0,0,0-1.051.4,1.565,1.565,0,0,0-.466,1.062,1.52,1.52,0,0,0,.2.751,2.611,2.611,0,0,0,.816.666A11.111,11.111,0,0,0,22.447,5.243ZM30.3,15.1l-2.063-.3-.975,1.407L23.9,10.974V22h8.977V10.9H27.588Z" transform="translate(-12.374)" fill="#fff"/>
      </g>
    </g>
  </g>
</svg>
