<svg id="do-utilizador" xmlns="http://www.w3.org/2000/svg" width="18.396" height="22.05" viewBox="0 0 18.396 22.05">
  <path id="Caminho_6" data-name="Caminho 6" d="M92.343,10.622A5.139,5.139,0,0,0,96.1,9.066a5.138,5.138,0,0,0,1.556-3.755A5.139,5.139,0,0,0,96.1,1.556a5.31,5.31,0,0,0-7.51,0,5.139,5.139,0,0,0-1.556,3.755,5.138,5.138,0,0,0,1.556,3.755A5.14,5.14,0,0,0,92.343,10.622Zm0,0" transform="translate(-83.284 0)" fill="#fff"/>
  <path id="Caminho_7" data-name="Caminho 7" d="M18.351,253.62a13.12,13.12,0,0,0-.179-1.393,10.979,10.979,0,0,0-.343-1.4,6.919,6.919,0,0,0-.576-1.306,4.929,4.929,0,0,0-.868-1.132,3.829,3.829,0,0,0-1.247-.784,4.311,4.311,0,0,0-1.592-.288,1.616,1.616,0,0,0-.863.366c-.259.169-.561.364-.9.58a5.152,5.152,0,0,1-1.163.513,4.518,4.518,0,0,1-2.846,0,5.141,5.141,0,0,1-1.163-.512c-.335-.214-.637-.409-.9-.58a1.614,1.614,0,0,0-.863-.366,4.306,4.306,0,0,0-1.592.288,3.825,3.825,0,0,0-1.248.784,4.93,4.93,0,0,0-.868,1.132,6.932,6.932,0,0,0-.576,1.307,11,11,0,0,0-.343,1.4,13.072,13.072,0,0,0-.179,1.394c-.029.422-.044.86-.044,1.3a3.662,3.662,0,0,0,1.087,2.77,3.915,3.915,0,0,0,2.8,1.022H14.506a3.914,3.914,0,0,0,2.8-1.022,3.66,3.66,0,0,0,1.088-2.77c0-.444-.015-.882-.045-1.3Zm0,0" transform="translate(0 -236.665)" fill="#fff"/>
</svg>
