<svg id="carrinho-carrinho" xmlns="http://www.w3.org/2000/svg" width="19.373" height="19.372" viewBox="0 0 19.373 19.372">
  <path id="Caminho_5" data-name="Caminho 5" d="M19.953,4.317a1.929,1.929,0,0,0-1.519-.734H5.348L4.858,1.5A.646.646,0,0,0,4.229,1H1.646a.646.646,0,0,0,0,1.291H3.717L6,11.994a1.932,1.932,0,0,0,.166,3.858H17.143a.646.646,0,0,0,0-1.291H6.166a.646.646,0,0,1,0-1.291h10.9a1.931,1.931,0,0,0,1.886-1.494l1.368-5.812a1.928,1.928,0,0,0-.367-1.647Z" transform="translate(-1 -1)" fill="#fff"/>
  <ellipse id="Elipse_5" data-name="Elipse 5" cx="1.937" cy="1.937" rx="1.937" ry="1.937" transform="translate(12.269 15.497)" fill="#fff"/>
  <ellipse id="Elipse_6" data-name="Elipse 6" cx="1.937" cy="1.937" rx="1.937" ry="1.937" transform="translate(5.166 15.497)" fill="#fff"/>
</svg>
