<svg xmlns="http://www.w3.org/2000/svg" width="12" height="12" viewBox="0 0 12 12">
  <path id="Icon_ionic-logo-whatsapp" data-name="Icon ionic-logo-whatsapp" d="M8.359,2.25A5.868,5.868,0,0,0,2.468,8.1a5.785,5.785,0,0,0,.845,3.018L2.25,14.25l3.262-1.036A5.86,5.86,0,1,0,8.359,2.25Zm2.929,8.065a1.522,1.522,0,0,1-1.042.672c-.276.015-.284.214-1.79-.44A6.146,6.146,0,0,1,5.972,8.2a2.889,2.889,0,0,1-.556-1.566A1.669,1.669,0,0,1,5.99,5.408.577.577,0,0,1,6.4,5.236c.119,0,.2,0,.283,0s.219-.018.333.285S7.4,6.57,7.436,6.646a.273.273,0,0,1,0,.262,1.023,1.023,0,0,1-.16.243c-.079.084-.165.189-.236.253s-.16.149-.078.3a4.508,4.508,0,0,0,.8,1.064,4.11,4.11,0,0,0,1.181.785c.148.08.236.072.327-.025s.392-.422.5-.567.205-.117.341-.062.861.443,1.009.524.246.121.282.185A1.237,1.237,0,0,1,11.288,10.315Z" transform="translate(-2.25 -2.25)" fill="#7d7b7b"/>
</svg>
